<?xml version="1.0" standalone="no"?>
<!DOCTYPE svg PUBLIC "-//W3C//DTD SVG 20010904//EN"
 "http://www.w3.org/TR/2001/REC-SVG-20010904/DTD/svg10.dtd">
<svg version="1.0" xmlns="http://www.w3.org/2000/svg"
 width="960.000000pt" height="960.000000pt" viewBox="0 0 960.000000 960.000000"
 preserveAspectRatio="xMidYMid meet">
<metadata>
Created by potrace 1.14, written by Peter Selinger 2001-2017
</metadata>
<g transform="translate(0.000000,960.000000) scale(0.100000,-0.100000)"
fill="#000000" stroke="none">
<path d="M2641 7587 c-97 -49 -221 -213 -225 -296 0 -21 -6 -31 -21 -33 -30
-6 -734 -1 -860 6 -60 3 -146 8 -190 11 -85 4 -204 13 -270 19 -22 2 -76 7
-120 11 -44 4 -88 9 -97 10 -9 2 -48 7 -85 10 -37 4 -79 8 -92 10 -21 4 -76
10 -166 18 -11 1 -19 -3 -18 -9 12 -66 18 -739 9 -939 -10 -193 -27 -443 -40
-580 -2 -16 -7 -66 -11 -110 -4 -44 -9 -87 -10 -95 -1 -8 -6 -44 -10 -80 -4
-36 -9 -73 -11 -84 -2 -10 -6 -44 -9 -75 -4 -31 -8 -63 -10 -71 -2 -8 -7 -37
-11 -65 -3 -27 -8 -59 -10 -70 -2 -10 -6 -37 -9 -60 -9 -61 -24 -157 -30 -185
-2 -13 -7 -40 -10 -60 -6 -39 -10 -61 -19 -100 -3 -14 -8 -41 -10 -60 -3 -19
-19 -96 -36 -170 -17 -74 -33 -146 -36 -160 -3 -14 -11 -47 -19 -75 -43 -153
-60 -252 -70 -420 -11 -178 -3 -684 11 -707 3 -4 -14 -8 -38 -8 -24 0 -48 -4
-55 -8 -7 -4 -15 -37 -18 -72 -3 -36 -7 -90 -10 -120 -22 -259 -25 -313 -30
-538 -2 -106 -1 -202 4 -214 15 -40 175 -121 286 -144 123 -25 175 -34 230
-39 22 -2 64 -7 93 -10 252 -26 358 -29 872 -28 458 0 703 5 1050 18 74 3 221
7 325 10 105 3 249 8 320 10 811 30 1106 36 1805 40 590 3 1032 10 1235 20 50
3 146 7 215 10 69 3 148 8 175 10 28 2 95 6 150 9 119 7 221 16 255 21 14 2
59 7 100 10 41 4 86 8 100 10 14 2 50 6 80 10 70 8 90 11 175 24 113 17 129
20 154 25 12 3 42 8 65 10 22 3 122 21 221 40 99 19 191 37 205 40 14 2 86 18
160 35 74 16 150 33 169 36 19 3 37 8 41 10 3 2 17 6 31 8 13 3 67 15 119 28
52 13 97 23 100 24 3 1 23 6 45 13 22 6 83 23 135 37 265 73 539 181 608 240
58 48 66 76 66 210 0 109 -8 216 -19 255 -2 8 -7 29 -10 45 -8 48 -12 68 -24
110 -6 22 -12 49 -14 60 -9 53 -51 156 -82 200 -20 28 -56 81 -81 118 -40 60
-49 68 -70 63 -19 -5 -36 6 -96 67 -85 84 -165 128 -263 143 -22 3 -42 7 -45
9 -30 18 -493 25 -700 10 -63 -4 -132 -9 -152 -9 -21 -1 -38 -3 -38 -6 0 -15
-124 -7 -209 15 -53 13 -147 35 -210 49 -84 19 -118 31 -128 46 -16 22 -79 55
-128 66 -53 13 -160 10 -161 -3 -1 -7 -2 -15 -3 -17 0 -3 -17 0 -37 6 -20 5
-44 11 -53 13 -52 10 -197 49 -262 71 -69 23 -78 28 -93 63 -30 66 -122 108
-216 99 -27 -2 -35 -7 -35 -23 0 -26 -6 -24 -169 32 -72 25 -153 52 -179 60
-47 14 -48 16 -47 51 3 69 0 81 -30 102 -33 23 -118 56 -170 65 -18 3 -37 8
-42 11 -5 3 -15 1 -23 -6 -11 -9 -11 -16 1 -45 29 -70 28 -70 -165 22 -159 75
-162 77 -152 106 14 38 -8 65 -83 101 -39 19 -88 40 -109 47 -39 14 -48 10
-60 -25 -3 -10 -101 50 -205 126 l-61 44 25 18 c30 23 30 37 2 81 -22 32 -127
109 -151 111 -7 0 -29 -6 -50 -13 l-38 -12 -51 52 c-53 54 -248 294 -248 306
0 3 16 19 35 34 35 28 35 28 20 63 -24 57 -76 123 -123 154 -43 28 -46 29 -80
14 -35 -14 -37 -14 -59 10 -13 14 -23 27 -23 30 0 2 -29 43 -64 90 -43 58 -62
92 -59 105 12 47 -107 221 -166 243 -26 10 -57 46 -144 168 -61 85 -126 175
-145 199 -18 24 -29 48 -25 52 4 4 25 9 46 11 60 4 65 19 28 93 -35 70 -110
160 -141 170 -10 3 -44 -1 -75 -11 l-57 -16 -101 105 c-122 126 -167 157 -217
151 -108 -15 -106 -15 -144 40 -20 28 -49 67 -66 86 -17 19 -49 61 -71 92 -61
89 -109 106 -188 65z"/>
</g>
</svg>
